<?xml version="1.0" encoding="UTF-8"?>
<svg version="1.1" viewBox="0 0 1600 1600" width="1280" height="1280" xmlns="http://www.w3.org/2000/svg">
<path transform="translate(0)" d="m0 0h1600v1600h-1600v-1600z" fill="#FCFCFC"/>
<path transform="translate(1284 389)" d="m0 0c9.38 6.5 16.7 15.4 18.9 26.7 1.09 6.26 1.13 12.4 1.03 18.7-0.00902 1.1-0.018 2.19-0.0273 3.32-0.0233 2.66-0.056 5.33-0.0977 7.99 6.2 0.396 11.2-1.03 17.1-2.94 13.8-4.39 29.2-7.01 42.9-1.06 0.928 0.391 1.86 0.781 2.81 1.18 12.4 5.68 22.4 14.9 32.7 23.6 8.13 6.71 16.6 12.9 25.2 18.9 13.4 9.47 20.8 16.5 26.5 32.2 0.539 1.42 0.539 1.42 1.09 2.88 2.6 6.95 2.6 6.95 2.6 9.25 4.42 2.76 9.34 3.56 14.4 2.5 3.39-1.02 6.72-2.18 10-3.37 11.2-3.75 21.8-2.91 32.6 1.87 4.6 2.6 8.97 5.58 13 9v2c0.58 0.249 1.16 0.498 1.76 0.754 9.43 5.24 14.9 17.1 18.5 26.8 6.16 22.1 3.76 46.7 2.83 69.4-0.0772 1.9-0.15 3.8-0.222 5.7-0.111 2.89-0.232 5.79-0.362 8.68-0.0352 0.799-0.0704 1.6-0.107 2.42-0.271 5.14-0.271 5.14-1.39 6.27-0.139 1.6-0.234 3.21-0.312 4.81-0.5 6.82-1.82 13.4-3.23 20.1-0.77 3.66-1.48 7.27-1.99 11-0.391 2.65-0.915 4.69-1.9 7.14-2.02 5.77-2.57 11.7-3.26 17.7-0.223 1.67-0.496 3.32-0.795 4.98-1.73 9.75-1.86 19.3-1.82 29.2 0.00174 1.32 0.00174 1.32 0.00351 2.66 0.0351 13.6 0.594 27.2 1.62 40.8 0.0588 0.81 0.118 1.62 0.178 2.45 0.244 15.1 0.244 15.1 5.51 28.2 0.298 1.35 0.563 2.7 0.812 4.06 2.28 10.5 7.78 16.1 16 22.8 12 9.91 21.7 18.1 24.2 34.1 0.269 3.94 0.286 7.86 0.25 11.8-0.00677 1.06-0.0135 2.12-0.0205 3.21-0.288 21.8-0.288 21.8-6.23 28-14.5 10.5-32.9 10.6-50.1 8.38-14.4-2.56-28.5-6.41-41.9-12.4-4.55-1.9-8.05-2.31-12.8-0.688-9.31 4.25-17.1 11.3-24.5 18.3-1.74 1.43-1.74 1.43-3.74 1.43-0.33 0.99-0.66 1.98-1 3-9.77 7.01-19.3 8.04-31 7.91-2.14 0.102-3.95 0.418-5.98 1.09-1.06 1.78-1.06 1.78-2 4-1.35 1.85-2.75 3.66-4.19 5.44-0.736 0.927-1.47 1.85-2.23 2.81-5.7 6.08-10.6 8.43-18.8 9.75-6.52 1.22-12.3 2.74-18.4 5.5-4.84 2.11-9.79 3.89-14.8 5.68-0.944 0.345-1.89 0.69-2.86 1.05-11.5 4.15-23.3 7.83-35.1 2.5-5.9-3.73-11-8.57-16.1-13.3-6.23-5.72-6.23-5.72-14.2-7.42-5.8 2.23-8.8 9.52-11.4 14.8-1.77 5.03-0.829 8.19 0.914 13.1 0.547 1.8 0.547 1.8 1.11 3.63 7.68 24.4 21.5 46 36.7 66.3 13.9 18.7 26.8 38.9 26.6 62.8-0.00685 1.14-0.0137 2.28-0.0208 3.46-0.168 8.86-1.31 16.4-4.42 24.8-0.316 0.991-0.632 1.98-0.957 3-2.31 6.5-5.8 11.9-9.86 17.4-0.485 0.666-0.971 1.33-1.47 2.02-5.95 7.77-13.9 14-23.7 15.6-10.9 0.884-19.3-1-28.6-6.81-6.62-3.81-12.8-1.66-19.8 0.188-14 3.59-27.9 4.91-42.3 5-1.16 0.0138-2.32 0.0276-3.52 0.0417-16.9-0.0909-29.3-6.47-41.9-17.4-0.603-0.508-1.21-1.02-1.83-1.54-8.8-8.02-14.7-19.5-20.7-29.7-14.1-25.7-14.1-25.7-38-40.5-6.54-1.4-13-1.57-19.7-1.62-1.01-0.0139-2.02-0.0277-3.06-0.042-10.1 0.063-18.4 2.94-27.4 7.35-0.699 0.335-1.4 0.669-2.12 1.01-4.2 2.02-8.36 4.1-12.5 6.22-6.33 3-13.9 3.08-20.7 1.83-8.54-3.05-16.1-8.81-23.1-14.5-3.89-3.13-7.09-5.45-12.3-5.64-8.25 2.56-14.7 8.73-21.4 14-15.8 12.5-30.6 19.9-51.2 18.1-7.17-1.7-11.7-7.33-16-13-2.25-3.92-4.08-7.98-5.88-12.1l-1.43-3.17c-4.63-10.4-5.94-18.3-5.44-29.6 0.241-10.3-4.08-15.3-11-22.8-4.68-4.8-9.75-8.69-15.2-12.7-22.2-16.6-38.8-43.3-50.8-68-1.1-2.56-1.1-2.56-2.35-3.7-0.439-5.12 0.839-9.41 2.5-14.2 0.269-0.785 0.538-1.57 0.816-2.38 7.82-22.4 18.5-43.3 30.5-63.7 11.7-19.8 21.6-37.1 21.3-60.5-6.45e-4 -1.2-0.00129-2.39-0.00195-3.63-0.0269-5.38-0.293-10.4-1.19-15.7-0.881-14.9-1.14-29.8 4-44 0.236-0.659 0.472-1.32 0.715-2 10.1-27.6 26.5-57.1 47.3-78 0.666-0.672 1.33-1.34 2.02-2.04 8.51-5.61 17.9-6.6 27.9-6.71 1.96-0.0423 1.96-0.0423 3.96-0.0854 5.06-0.0976 10.1-0.133 15.2-0.165 1.14-0.00753 2.28-0.0151 3.46-0.0228 8.68-0.0538 17.4-0.0849 26-0.0988 1.36-0.00225 2.72-0.00484 4.08-0.00778 13.8-0.0294 27.5-0.0121 41.3 0.512 0.905 0.0304 1.81 0.0607 2.74 0.092 7.06 0.316 14.2 0.979 20.4 4.53 4.52 5.02 4.23 10.3 4.17 16.7-0.273 5.11-1.29 9.97-2.42 14.9-0.227 1.04-0.455 2.07-0.689 3.14-0.46 2.08-0.926 4.17-1.4 6.25-0.596 2.63-1.17 5.27-1.74 7.9-1.52 6.9-3.18 13.5-6.18 19.9-0.868 2.46-0.861 4.49-0.734 7.08 5.2-1.22 9.44-3.18 14.1-5.73 15.8-8.53 15.8-8.53 24.9-6.27 5.16 1.59 10.2 3.43 15.3 5.31 9.99 3.67 20.2 4.96 30.7 2.69 2.58-1.9 2.96-2.89 4-6 0.842-11.2-0.314-22.3-1.72-33.4-7.21-58.2-7.21-58.2 5.93-82.3 2.14-3.97 4.13-7.99 6.11-12 3.09-6.28 6.22-12.5 9.38-18.8 3.83-7.55 7.54-15.2 11.1-22.8 1.95-4.16 3.96-8.28 6.04-12.4 3.34-6.66 6.41-13.4 9.44-20.2 0.571-1.28 1.14-2.55 1.71-3.83 2.98-6.67 5.9-13.4 8.74-20.1 10.4-24.7 10.4-24.7 19.1-31.1 4.64-4.55 6.55-10 6.69-16.4-0.00191-0.746-0.00382-1.49-0.00578-2.26 0.0142-0.799 0.0283-1.6 0.0429-2.42 0.0415-2.53 0.057-5.07 0.0704-7.6 0.0389-3.33 0.0874-6.65 0.137-9.98 0.0109-0.806 0.0218-1.61 0.0331-2.44 0.331-21.3 3.41-40.7 18.8-56.8 3.79-3.41 7.9-5.78 12.4-8.15 0.788-0.463 1.58-0.926 2.39-1.4 13.5-7.91 30.2-8.39 43.8-0.312z" fill="#FCFCFC"/>
<path transform="translate(603 704)" d="m0 0c2.04-0.00217 4.08-0.0203 6.12-0.0393 8.45-0.0367 16.5 0.646 24.8 2.22 0.769 0.141 1.54 0.281 2.33 0.427 36.1 6.98 69.6 29.2 90.4 59.5 11.3 16.8 18.7 33.1 22.3 53.1 0.255 1.03 0.255 1.03 0.514 2.07 0.663 4 0.648 7.92 0.654 12 0.00333 0.875 0.00666 1.75 0.0101 2.65 0.00505 1.85 0.00741 3.7 0.00725 5.55 0.00217 2.79 0.0203 5.59 0.0393 8.38 0.0299 9.31-0.132 18.3-2.22 27.4-0.284 1.27-0.567 2.54-0.859 3.86-4.25 15.9-9.67 31-17.7 45.4-2.04 3.82-3.79 7.74-5.46 11.7 3.87 4.02 7.98 7.56 12.3 11.1 0.696 0.564 1.39 1.13 2.11 1.71 5.54 4.46 11.2 8.74 16.9 13 7.79 5.8 15.5 11.7 22.2 18.7 1.27 1.32 2.62 2.56 3.98 3.78 8.65 9.51 13.3 20 12.9 32.9-0.97 6.81-4.84 10.6-10 14.8-4.8 3.6-8.33 4.55-14.4 4.06-2.78-1.03-5.27-2.43-7.81-3.94-0.698-0.402-1.4-0.805-2.11-1.22-5.17-3.08-9.64-6.59-14-10.8-2.12-2.12-2.12-2.12-4.69-4.09-2.13-1.72-3.8-3.37-5.55-5.46-2.92-3.43-5.97-6.72-9.06-10-9.47-10.2-17.7-21.4-24.4-33.6-1.21-2.17-1.21-2.17-3.38-4.88-2.7-0.587-2.7-0.587-5 0-0.223 0.592-0.446 1.18-0.676 1.79-7.72 12.9-39 20.7-52.1 24.3-11 2.53-22 3.26-33.3 3.21-1.01-0.00273-1.01-0.00273-2.03-0.00552-17.7-0.0805-34.2-2.21-50.9-8.31-1.03-0.369-2.06-0.737-3.12-1.12-37.6-14.5-65.6-46.4-81.9-82.3-11.1-25.1-13.4-55.9-6.98-82.6 0.155-0.678 0.309-1.36 0.468-2.06 2.25-9.79 4.86-18.6 9.66-27.5 1.33-2.45 2.55-4.86 3.71-7.38 4.55-9.8 10.1-17.9 17.2-26.1 0.48-0.558 0.96-1.12 1.45-1.69 11.5-13.3 24.3-23.5 39.5-32.3 0.616-0.368 1.23-0.735 1.87-1.11 19.9-11.8 43.2-17.1 66.2-17.1z" fill="#FDFDFD"/>
<path transform="translate(424 662)" d="m0 0c1.24-0.00387 2.48-0.00773 3.75-0.0117 1.17 0.00129 2.35 0.00258 3.56 0.00391 1.07 0.00113 2.14 0.00226 3.24 0.00342 2.45 0.129 2.45 0.129 3.45 1.13 0.108 1.65 0.147 3.31 0.158 4.97 0.00979 1.08 0.0196 2.16 0.0297 3.27 0.00863 1.8 0.00863 1.8 0.0174 3.63 0.00989 1.26 0.0198 2.52 0.03 3.82 0.0272 3.49 0.0482 6.99 0.068 10.5 0.0221 3.72 0.0496 7.44 0.0764 11.2 0.0508 7.21 0.0957 14.4 0.138 21.6 0.0344 5.83 0.0706 11.7 0.108 17.5 0.878 138 0.878 138-0.0318 205-0.0208 1.53-0.0412 3.06-0.0612 4.59-0.0636 4.85-0.137 9.7-0.216 14.6-0.0167 1.19-0.0334 2.39-0.0507 3.62-0.0199 1.09-0.0399 2.18-0.0604 3.3-0.0155 0.937-0.0311 1.87-0.0471 2.84-0.159 2.61-0.583 5.05-1.16 7.6-3.71 0.0584-7.42 0.0937-11.1 0.125-1.05 0.0168-2.09 0.0335-3.17 0.0508-11.5 0.0729-11.5 0.0729-16.5-3.46-1.61-2.34-1.78-4.35-2.12-7.15-0.573-3.71-0.821-5.26-3.19-8.25-0.619-0.433-1.24-0.866-1.88-1.31-0.784 0.66-1.57 1.32-2.38 2-2.62 2-2.62 2-4.62 2-0.33 0.99-0.66 1.98-1 3-1.91 1.39-1.91 1.39-4.41 2.81-0.908 0.518-1.82 1.04-2.75 1.57-0.957 0.534-1.91 1.07-2.9 1.62-0.93 0.534-1.86 1.07-2.82 1.62-20.7 11.7-45.3 13.5-68.1 7.38-19.7-6.48-36.3-20.9-45.8-39.2-9.49-19.2-12.5-39.6-13.2-60.8-0.0412-1.02-0.0825-2.03-0.125-3.08-0.488-24.7 3.53-48.2 10.1-71.9h2c0.249-0.833 0.498-1.67 0.754-2.52 7.19-20.1 21.7-34.4 40.6-43.8 7.34-3.2 14.9-5.07 22.7-6.69 0.81-0.177 1.62-0.353 2.45-0.535 20.9-3.47 45.1 7.44 62.2 18.5 2.96 1.85 4.88 2.74 8.31 3.06-0.106-0.902-0.106-0.902-0.214-1.82-0.68-6.21-0.935-12.3-0.932-18.6-0.00336-0.983-0.00672-1.97-0.0102-2.98-0.00942-3.22-0.0114-6.43-0.0125-9.65-0.00322-2.25-0.00658-4.49-0.0101-6.74-0.00597-4.69-0.00784-9.37-0.00725-14.1 1.02e-4 -6.02-0.0136-12-0.0308-18.1-0.0111-4.63-0.0131-9.25-0.0126-13.9-0.00118-2.22-0.00562-4.44-0.0133-6.66-0.00974-3.09-0.00695-6.18-8.95e-4 -9.27-0.00562-0.922-0.0112-1.84-0.017-2.79 0.00419-0.838 0.00839-1.68 0.0127-2.54-5.45e-4 -0.73-0.00109-1.46-0.00165-2.21 0.249-1.8 0.249-1.8 2.25-3.8 7.63-1.26 15.3-1.15 23-1.12z" fill="#091108"/>
<path transform="translate(1284 389)" d="m0 0c9.38 6.5 16.7 15.4 18.9 26.7 1.09 6.26 1.13 12.4 1.03 18.7-0.00902 1.1-0.018 2.19-0.0273 3.32-0.0233 2.66-0.056 5.33-0.0977 7.99 6.2 0.396 11.2-1.03 17.1-2.94 13.8-4.39 29.2-7.01 42.9-1.06 0.928 0.391 1.86 0.781 2.81 1.18 12.4 5.68 22.4 14.9 32.7 23.6 8.13 6.71 16.6 12.9 25.2 18.9 13.4 9.47 20.8 16.5 26.5 32.2 0.539 1.42 0.539 1.42 1.09 2.88 2.6 6.95 2.6 6.95 2.6 9.25 4.42 2.76 9.34 3.56 14.4 2.5 3.39-1.02 6.72-2.18 10-3.37 11.2-3.75 21.8-2.91 32.6 1.87 4.6 2.6 8.97 5.58 13 9v2c0.58 0.249 1.16 0.498 1.76 0.754 9.43 5.24 14.9 17.1 18.5 26.8 6.16 22.1 3.76 46.7 2.83 69.4-0.0772 1.9-0.15 3.8-0.222 5.7-0.111 2.89-0.232 5.79-0.362 8.68-0.0352 0.799-0.0704 1.6-0.107 2.42-0.271 5.14-0.271 5.14-1.39 6.27-0.139 1.6-0.234 3.21-0.312 4.81-0.5 6.82-1.82 13.4-3.23 20.1-0.77 3.66-1.48 7.27-1.99 11-0.391 2.65-0.915 4.69-1.9 7.14-2.02 5.77-2.57 11.7-3.26 17.7-0.223 1.67-0.496 3.32-0.795 4.98-1.73 9.75-1.86 19.3-1.82 29.2 0.00174 1.32 0.00174 1.32 0.00351 2.66 0.0351 13.6 0.594 27.2 1.62 40.8 0.0588 0.81 0.118 1.62 0.178 2.45 0.244 15.1 0.244 15.1 5.51 28.2 0.298 1.35 0.563 2.7 0.812 4.06 2.28 10.5 7.78 16.1 16 22.8 12 9.91 21.7 18.1 24.2 34.1 0.269 3.94 0.286 7.86 0.25 11.8-0.00677 1.06-0.0135 2.12-0.0205 3.21-0.288 21.8-0.288 21.8-6.23 28-14.5 10.5-32.9 10.6-50.1 8.38-14.4-2.56-28.5-6.41-41.9-12.4-4.55-1.9-8.05-2.31-12.8-0.688-9.31 4.25-17.1 11.3-24.5 18.3-1.74 1.43-1.74 1.43-3.74 1.43-0.33 0.99-0.66 1.98-1 3-9.77 7.01-19.3 8.04-31 7.91-2.14 0.102-3.95 0.418-5.98 1.09-1.06 1.78-1.06 1.78-2 4-1.35 1.85-2.75 3.66-4.19 5.44-0.736 0.927-1.47 1.85-2.23 2.81-5.7 6.08-10.6 8.43-18.8 9.75-6.52 1.22-12.3 2.74-18.4 5.5-4.84 2.11-9.79 3.89-14.8 5.68-0.944 0.345-1.89 0.69-2.86 1.05-11.5 4.15-23.3 7.83-35.1 2.5-5.9-3.73-11-8.57-16.1-13.3-6.23-5.72-6.23-5.72-14.2-7.42-5.8 2.23-8.8 9.52-11.4 14.8-1.77 5.03-0.829 8.19 0.914 13.1 0.547 1.8 0.547 1.8 1.11 3.63 7.68 24.4 21.5 46 36.7 66.3 13.9 18.7 26.8 38.9 26.6 62.8-0.00685 1.14-0.0137 2.28-0.0208 3.46-0.168 8.86-1.31 16.4-4.42 24.8-0.316 0.991-0.632 1.98-0.957 3-2.31 6.5-5.8 11.9-9.86 17.4-0.485 0.666-0.971 1.33-1.47 2.02-5.95 7.77-13.9 14-23.7 15.6-10.9 0.884-19.3-1-28.6-6.81-6.62-3.81-12.8-1.66-19.8 0.188-14 3.59-27.9 4.91-42.3 5-1.16 0.0138-2.32 0.0276-3.52 0.0417-16.9-0.0909-29.3-6.47-41.9-17.4-0.603-0.508-1.21-1.02-1.83-1.54-8.8-8.02-14.7-19.5-20.7-29.7-14.1-25.7-14.1-25.7-38-40.5-6.54-1.4-13-1.57-19.7-1.62-1.01-0.0139-2.02-0.0277-3.06-0.042-10.1 0.063-18.4 2.94-27.4 7.35-0.699 0.335-1.4 0.669-2.12 1.01-4.2 2.02-8.36 4.1-12.5 6.22-6.33 3-13.9 3.08-20.7 1.83-8.54-3.05-16.1-8.81-23.1-14.5-3.89-3.13-7.09-5.45-12.3-5.64-8.25 2.56-14.7 8.73-21.4 14-15.8 12.5-30.6 19.9-51.2 18.1-7.17-1.7-11.7-7.33-16-13-2.25-3.92-4.08-7.98-5.88-12.1l-1.43-3.17c-4.63-10.4-5.94-18.3-5.44-29.6 0.241-10.3-4.08-15.3-11-22.8-4.68-4.8-9.75-8.69-15.2-12.7-22.2-16.6-38.8-43.3-50.8-68-1.1-2.56-1.1-2.56-2.35-3.7-0.439-5.12 0.839-9.41 2.5-14.2 0.269-0.785 0.538-1.57 0.816-2.38 7.82-22.4 18.5-43.3 30.5-63.7 11.7-19.8 21.6-37.1 21.3-60.5-6.45e-4 -1.2-0.00129-2.39-0.00195-3.63-0.0269-5.38-0.293-10.4-1.19-15.7-0.881-14.9-1.14-29.8 4-44 0.236-0.659 0.472-1.32 0.715-2 10.1-27.6 26.5-57.1 47.3-78 0.666-0.672 1.33-1.34 2.02-2.04 8.51-5.61 17.9-6.6 27.9-6.71 1.96-0.0423 1.96-0.0423 3.96-0.0854 5.06-0.0976 10.1-0.133 15.2-0.165 1.14-0.00753 2.28-0.0151 3.46-0.0228 8.68-0.0538 17.4-0.0849 26-0.0988 1.36-0.00225 2.72-0.00484 4.08-0.00778 13.8-0.0294 27.5-0.0121 41.3 0.512 0.905 0.0304 1.81 0.0607 2.74 0.092 7.06 0.316 14.2 0.979 20.4 4.53 4.52 5.02 4.23 10.3 4.17 16.7-0.273 5.11-1.29 9.97-2.42 14.9-0.227 1.04-0.455 2.07-0.689 3.14-0.46 2.08-0.926 4.17-1.4 6.25-0.596 2.63-1.17 5.27-1.74 7.9-1.52 6.9-3.18 13.5-6.18 19.9-0.868 2.46-0.861 4.49-0.734 7.08 5.2-1.22 9.44-3.18 14.1-5.73 15.8-8.53 15.8-8.53 24.9-6.27 5.16 1.59 10.2 3.43 15.3 5.31 9.99 3.67 20.2 4.96 30.7 2.69 2.58-1.9 2.96-2.89 4-6 0.842-11.2-0.314-22.3-1.72-33.4-7.21-58.2-7.21-58.2 5.93-82.3 2.14-3.97 4.13-7.99 6.11-12 3.09-6.28 6.22-12.5 9.38-18.8 3.83-7.55 7.54-15.2 11.1-22.8 1.95-4.16 3.96-8.28 6.04-12.4 3.34-6.66 6.41-13.4 9.44-20.2 0.571-1.28 1.14-2.55 1.71-3.83 2.98-6.67 5.9-13.4 8.74-20.1 10.4-24.7 10.4-24.7 19.1-31.1 4.64-4.55 6.55-10 6.69-16.4-0.00191-0.746-0.00382-1.49-0.00578-2.26 0.0142-0.799 0.0283-1.6 0.0429-2.42 0.0415-2.53 0.057-5.07 0.0704-7.6 0.0389-3.33 0.0874-6.65 0.137-9.98 0.0109-0.806 0.0218-1.61 0.0331-2.44 0.331-21.3 3.41-40.7 18.8-56.8 3.79-3.41 7.9-5.78 12.4-8.15 0.788-0.463 1.58-0.926 2.39-1.4 13.5-7.91 30.2-8.39 43.8-0.312zm-34.2 9.71c-0.92 0.455-1.84 0.91-2.79 1.38-11.7 5.9-18.6 15.1-23.4 27-2.17 7.56-1.88 15.4-1.87 23.1-0.0135 2.44-0.0285 4.88-0.0449 7.32-0.0228 3.82-0.0371 7.63-0.0247 11.4 0.00883 3.7-0.0201 7.41-0.0554 11.1 0.0122 1.13 0.0245 2.26 0.0371 3.43-0.116 7.61-1.71 12.5-6.81 18.2-2.04 1.89-4.11 3.42-6.38 5.06-10.9 8.55-14.7 21.6-19.3 34.2-1.52 4.09-3.23 8.03-5.09 12-1.16 2.48-2.29 4.97-3.41 7.47-3.23 7.11-6.65 14.1-10.1 21.2-1.1 2.26-2.2 4.52-3.3 6.78-5.42 11.2-10.9 22.3-16.5 33.3-2.02 3.97-4 7.97-5.95 12-0.421 0.86-0.843 1.72-1.28 2.6-5.49 11.3-10.2 21.8-11.7 34.4h2c-0.143 1.02-0.143 1.02-0.289 2.07-1.47 13.4 0.567 26.7 2.1 40 0.126 1.1 0.126 1.1 0.255 2.22 0.0834 0.726 0.167 1.45 0.253 2.2 3.91 35 3.91 35-0.315 44.5-2.12 2.5-2.12 2.5-5 5-0.525 0.577-1.05 1.15-1.59 1.75-3.87 3.98-6.72 5.73-12.3 6.11-2.2 0.00714-4.4-0.0311-6.59-0.109-1.15-0.0209-2.3-0.0417-3.49-0.0632-9.46-0.327-17.3-2.18-26-5.69-10-3.63-10-3.63-20.2-2.05-3.04 1.65-5.92 3.39-8.68 5.5-5.99 4.4-11.9 4.56-19.1 3.55-4.23-1.82-5.53-3.25-7.94-7.12-3.07-8.63 0.964-19.5 2.84-28.1 0.472-2.18 0.934-4.36 1.4-6.54 1.5-7.03 3.09-14 5.2-20.9 0.864-3.98 0.274-7.35-0.496-11.3-1.65-1.65-3.56-1.14-5.83-1.16-1.04-0.00979-2.09-0.0196-3.17-0.0297-1.73-0.00863-1.73-0.00863-3.5-0.0174-1.81-0.0148-1.81-0.0148-3.67-0.03-3.33-0.0263-6.65-0.0481-9.98-0.068-3.47-0.0218-6.95-0.0492-10.4-0.0761-6.58-0.05-13.2-0.0949-19.7-0.138-7.49-0.0493-15-0.104-22.5-0.16-15.4-0.114-30.8-0.221-46.2-0.323v2c-0.681 0.186-1.36 0.371-2.06 0.562-7.46 3.65-11.7 10.7-15.7 17.7-0.511 0.873-1.02 1.75-1.55 2.64-1.06 1.81-2.11 3.62-3.16 5.44-1.46 2.52-2.93 5.03-4.41 7.53-2.76 4.69-5.46 9.4-8.13 14.1-0.686 1.21-0.686 1.21-1.39 2.45-9.69 17.3-14.6 33.5-14.6 53.5l1 3c0.135 1.49 0.22 2.99 0.272 4.49 0.0322 0.91 0.0644 1.82 0.0976 2.76 0.112 4.24 0.193 8.47 0.255 12.7 0.0412 2.21 0.102 4.41 0.185 6.62 0.631 17.2-2.43 29.4-10.8 44.4-0.599 1.12-1.2 2.24-1.82 3.39-1.41 2.54-2.89 5.02-4.43 7.48-1.11 1.83-2.21 3.66-3.32 5.5-0.561 0.92-1.12 1.84-1.7 2.79-7.78 12.8-15.4 25.6-21.9 39.1-0.437 0.904-0.874 1.81-1.32 2.74-3.06 6.51-5.39 13.2-7.55 20-0.583 1.81-1.17 3.63-1.75 5.44-1.76 5.53-1.71 9.38 0.875 14.6 5 9.58 11.5 18.2 17.9 26.9 0.546 0.755 1.09 1.51 1.65 2.29 9.98 13.8 20.3 26 34.4 35.8 10.4 7.37 18.4 16.4 22 28.9 0.46 4.06 0.487 8.11 0.562 12.2 0.46 9.79 2.33 17.7 6.62 26.6 0.458 0.945 0.915 1.89 1.39 2.86 3.25 6.2 7.06 11.2 13.4 14.4 14.9 1.78 25.6-6.72 37-15 25-18.1 25-18.1 34.4-17.5 7.96 1.7 14.7 7.22 21.1 11.9 6.67 4.61 14.1 9.57 22.4 8.67 3.14-1.48 6.01-3.33 8.94-5.19 8.19-4.98 15.9-8.14 25.1-10.8 1.22-0.532 1.22-0.532 2.46-1.07 15.1-5.52 37-1.18 51.1 5.23 8.99 4.71 14.8 11.1 20.4 19.4 0.617 0.892 1.23 1.78 1.87 2.7 3.85 5.64 7.2 11.3 10.3 17.4 9.62 17.6 22.7 37.3 42.8 43.3 6.14 1.49 12.4 1.19 18.7 1.19 2.2 0.00218 4.39 0.0204 6.59 0.0393 1.41 0.00294 2.83 0.00492 4.24 0.00586 1.91 0.00616 1.91 0.00616 3.85 0.0125 3.81-0.253 7.02-1.08 10.7-2.24 2.46-0.549 4.92-1.02 7.4-1.49 1.7-0.332 3.39-0.69 5.08-1.08 10.7-2.4 18.6-1.98 28.5 2.57 7.69 3.36 14.6 5.2 23 4 3.41-1.41 3.41-1.41 6-4 0.806-0.642 0.806-0.642 1.63-1.3 12.8-11.1 17.4-30 18.6-46.1 0.851-25.8-14.1-45.1-28.3-65.1-39.9-56.3-39.9-56.3-38.6-81.1 2.67-11.3 9.87-21.2 19.1-28 2.97-1.82 4.33-2.43 7.88-2.69 9.02 3.11 15.9 8.1 23 14.3 7.21 6.25 12.7 10.5 22.6 9.98 3.78-0.692 7.35-1.81 11-3 1.07-0.315 2.13-0.629 3.23-0.953 5.9-1.75 11.6-3.7 17.3-6.05 6.61-2.7 13.3-4.96 20.1-6.88 9.9-3.06 14.6-7.94 20.3-16.5 2.51-3.16 4.41-4.81 8.05-6.59 3.42-0.32 6.77-0.086 10.2 0.125 8.88 0.255 14.6-0.579 21.8-6.12 0.991-0.7 1.98-1.4 3-2.12 4.78-3.45 9.29-7.08 13.6-11.1 7.88-7.18 16.5-12.4 27.3-12.1 5.43 0.597 10.3 2.61 15.4 4.58 11.8 4.34 23.3 7 35.7 8.75 1.91 0.29 1.91 0.29 3.86 0.586 2.42 0.32 4.7 0.55 7.14 0.539l1.81 0.00781c5.63-0.342 11-1.47 16.4-2.95l3.64-0.957c3.45-1.36 4.45-1.97 6.11-5.23 1.78-5.66 2.36-10.8 2.31-16.8-0.00419-0.783-0.00838-1.57-0.0127-2.37-0.175-9.09-1.43-17.6-7.3-24.9-0.705-0.929-1.41-1.86-2.14-2.82-3.08-3.69-6.8-6.14-10.8-8.75-14.4-9.48-20.3-18.5-24.1-35.4-1.06-5.39-1.82-10.8-2.56-16.2-0.104-0.744-0.207-1.49-0.314-2.26-5.65-40.8-8.21-79.4 3.72-119 5.02-17.4 7.04-35.1 8.15-53.2 0.0424-0.641 0.0847-1.28 0.128-1.94 0.745-11.3 1.06-22.6 1.06-34 0.00222-2.63 0.0206-5.26 0.0393-7.88 0.0656-18.9-3.74-32.6-17.4-46.4-4.37-4.07-8.15-6.85-13.8-8.77-0.913-0.345-1.83-0.691-2.77-1.05-10.6-3.13-21.1-0.681-31.2 3.05-6.24 2.18-11.1 3.1-17.4 0.562-8.42-5.01-11.7-17.5-14.4-26.4-4.66-13.1-18-21-28.9-28.6-3.57-2.5-7.06-5.11-10.5-7.73-0.651-0.489-1.3-0.979-1.97-1.48-5.63-4.25-11.2-8.61-16.7-13-14.9-11.7-27.6-18.2-47.1-16-2.83 0.465-2.83 0.465-4.76 1.57-2.62 1.27-5.16 1.89-7.99 2.55-3.37 0.804-6.64 1.64-9.94 2.69-5.38 1.34-10 1.68-15.2-0.625-3.06-2.56-3.06-2.56-3.76-6.48-0.534-6.66-0.281-13.3-0.0859-20 0.134-9.53-1.12-18.7-7.34-26.3-7.73-7.38-16.6-10.3-27.1-10.1-3.64 0.427-5.24 1.72-7.77 4.32z" fill="#091108"/>
<path transform="translate(603 704)" d="m0 0c2.04-0.00217 4.08-0.0203 6.12-0.0393 8.45-0.0367 16.5 0.646 24.8 2.22 0.769 0.141 1.54 0.281 2.33 0.427 36.1 6.98 69.6 29.2 90.4 59.5 11.3 16.8 18.7 33.1 22.3 53.1 0.255 1.03 0.255 1.03 0.514 2.07 0.663 4 0.648 7.92 0.654 12 0.00333 0.875 0.00666 1.75 0.0101 2.65 0.00505 1.85 0.00741 3.7 0.00725 5.55 0.00217 2.79 0.0203 5.59 0.0393 8.38 0.0299 9.31-0.132 18.3-2.22 27.4-0.284 1.27-0.567 2.54-0.859 3.86-4.25 15.9-9.67 31-17.7 45.4-2.04 3.82-3.79 7.74-5.46 11.7 3.87 4.02 7.98 7.56 12.3 11.1 0.696 0.564 1.39 1.13 2.11 1.71 5.54 4.46 11.2 8.74 16.9 13 7.79 5.8 15.5 11.7 22.2 18.7 1.27 1.32 2.62 2.56 3.98 3.78 8.65 9.51 13.3 20 12.9 32.9-0.97 6.81-4.84 10.6-10 14.8-4.8 3.6-8.33 4.55-14.4 4.06-2.78-1.03-5.27-2.43-7.81-3.94-0.698-0.402-1.4-0.805-2.11-1.22-5.17-3.08-9.64-6.59-14-10.8-2.12-2.12-2.12-2.12-4.69-4.09-2.13-1.72-3.8-3.37-5.55-5.46-2.92-3.43-5.97-6.72-9.06-10-9.47-10.2-17.7-21.4-24.4-33.6-1.21-2.17-1.21-2.17-3.38-4.88-2.7-0.587-2.7-0.587-5 0-0.223 0.592-0.446 1.18-0.676 1.79-7.72 12.9-39 20.7-52.1 24.3-11 2.53-22 3.26-33.3 3.21-1.01-0.00273-1.01-0.00273-2.03-0.00552-17.7-0.0805-34.2-2.21-50.9-8.31-1.03-0.369-2.06-0.737-3.12-1.12-37.6-14.5-65.6-46.4-81.9-82.3-11.1-25.1-13.4-55.9-6.98-82.6 0.155-0.678 0.309-1.36 0.468-2.06 2.25-9.79 4.86-18.6 9.66-27.5 1.33-2.45 2.55-4.86 3.71-7.38 4.55-9.8 10.1-17.9 17.2-26.1 0.48-0.558 0.96-1.12 1.45-1.69 11.5-13.3 24.3-23.5 39.5-32.3 0.616-0.368 1.23-0.735 1.87-1.11 19.9-11.8 43.2-17.1 66.2-17.1zm-69.1 61.2c-0.803 0.668-1.61 1.34-2.43 2.02-19.5 16.8-35.2 42.5-37.2 68.7-0.428 6.1-0.532 12.1-0.375 18.2 0.00516 0.959 0.0103 1.92 0.0156 2.91 0.926 25.7 13.7 51.3 32 69.1h2v2c1.86 1.64 3.71 3.14 5.69 4.62 0.882 0.668 0.882 0.668 1.78 1.35 18 13.4 39.6 24.5 62.5 25 1.23 0.0503 2.47 0.101 3.74 0.152 28.9 0.843 55.2-8.74 77.3-27.2 0.884-0.719 1.77-1.44 2.68-2.18 6.87-5.84 12.1-12.6 17.3-19.8 0.663-0.892 1.33-1.78 2.01-2.7 6.45-8.87 10.5-17.6 12.7-28.3 0.208-0.92 0.415-1.84 0.629-2.79 6.44-29.5 2.16-61.4-13.9-87-2.88-4.31-6.11-8.23-9.57-12.1-1.9-2.12-1.9-2.12-2.9-4.12h-2v-2h-2c-0.39-0.902-0.39-0.902-0.789-1.82-1.3-2.35-2.46-3.42-4.59-5.02-1-0.755-1-0.755-2.03-1.52-1.07-0.779-1.07-0.779-2.16-1.57-0.73-0.538-1.46-1.08-2.21-1.63-4.9-3.56-9.75-6.83-15.2-9.43-0.857-0.415-0.857-0.415-1.73-0.839-39.8-19.2-87.4-12.4-121 15.8z" fill="#091108"/>
<path transform="translate(180 772)" d="m0 0c0.522 0.5 1.04 1 1.58 1.52v2c0.55 0.191 1.1 0.382 1.67 0.578 3.37 2.06 5.37 5.02 7.64 8.17 0.724 0.999 0.724 0.999 1.46 2.02 9.59 13.6 14.6 27.9 17.2 44.2 0.175 1.06 0.35 2.13 0.53 3.22 1.47 9.81 1.71 19.3 1.59 29.2-0.0101 1.52-0.0192 3.04-0.0273 4.56-0.0217 3.67-0.056 7.33-0.0977 11-2.66 1.33-4.69 1.14-7.67 1.16-1.81 0.0147-1.81 0.0147-3.65 0.0297-1.34 0.0059-2.69 0.0117-4.03 0.0174-1.41 0.00958-2.82 0.0196-4.23 0.03-3.83 0.0271-7.66 0.0481-11.5 0.068-4 0.0218-8.01 0.0492-12 0.0761-7.58 0.05-15.2 0.0949-22.7 0.138-8.63 0.0493-17.3 0.104-25.9 0.16-17.8 0.114-35.5 0.221-53.3 0.323-0.0269 1.81-0.0463 3.62-0.0625 5.44-0.0116 1.01-0.0232 2.02-0.0352 3.06-0.188 2.44-0.188 2.44 1.1 3.5 0.328 1.95 0.612 3.91 0.875 5.88 2.6 17.2 8.3 32.5 22.4 43.3 15.2 10.6 34.5 10.6 52.3 8.12 2.15-0.402 4.3-0.845 6.44-1.31 0.761-0.161 1.52-0.323 2.31-0.489 10.3-2.21 20.4-4.77 30.2-8.63 3.98-1.53 7.24-2.34 11.5-1.88 5.18 3.95 8.19 9.18 9.53 15.5 0.313 3.61 0.266 6.3-1.76 9.38-20.8 19.9-50 23.9-77.3 23.3-29.1-1.1-53.8-11.4-74.5-32.1-11.5-13.3-18.2-30.9-22.1-47.8-0.171-0.723-0.342-1.45-0.518-2.19-2.53-11.4-2.54-22.9-2.54-34.5-0.00219-2.35-0.0204-4.69-0.0393-7.04-0.0453-12.2 0.364-24.1 5.22-35.4 0.373-1.02 0.745-2.04 1.13-3.09 2.06-5.64 4.14-10.9 7.52-15.8 1.63-2.49 3-5.08 4.42-7.69 6.01-10.4 14.4-20.1 23.9-27.4 0.624-0.483 1.25-0.967 1.89-1.46 10.2-7.34 22.8-13.1 35.1-15.5 0.95-0.202 1.9-0.405 2.88-0.613 25.1-4.81 53.4 1.47 73.5 17.1z" fill="#091108"/>
<path transform="translate(1284 389)" d="m0 0c9.38 6.5 16.7 15.4 18.9 26.7 1.09 6.26 1.13 12.4 1.03 18.7-0.00902 1.1-0.018 2.19-0.0273 3.32-0.0233 2.66-0.056 5.33-0.0977 7.99 6.2 0.396 11.2-1.03 17.1-2.94 13.8-4.39 29.2-7.01 42.9-1.06 0.928 0.391 1.86 0.781 2.81 1.18 12.4 5.68 22.4 14.9 32.7 23.6 8.13 6.71 16.6 12.9 25.2 18.9 13.4 9.47 20.8 16.5 26.5 32.2 0.539 1.42 0.539 1.42 1.09 2.88 2.6 6.95 2.6 6.95 2.6 9.25 4.42 2.76 9.34 3.56 14.4 2.5 3.39-1.02 6.72-2.18 10-3.37 11.2-3.75 21.8-2.91 32.6 1.87 4.6 2.6 8.97 5.58 13 9v2c0.58 0.249 1.16 0.498 1.76 0.754 9.43 5.24 14.9 17.1 18.5 26.8 6.16 22.1 3.76 46.7 2.83 69.4-0.0772 1.9-0.15 3.8-0.222 5.7-0.111 2.89-0.232 5.79-0.362 8.68-0.0352 0.799-0.0704 1.6-0.107 2.42-0.271 5.14-0.271 5.14-1.39 6.27-0.139 1.6-0.234 3.21-0.312 4.81-0.5 6.82-1.82 13.4-3.23 20.1-0.77 3.66-1.48 7.27-1.99 11-0.391 2.65-0.915 4.69-1.9 7.14-2.02 5.77-2.57 11.7-3.26 17.7-0.222 1.65-0.496 3.3-0.798 4.94-1.8 10-1.81 19.9-1.76 30.1 0.00177 0.902 0.00354 1.8 0.00537 2.73 0.0296 12.8 0.489 25.5 1.81 38.3 0.567 5.73 0.527 11.4 0.438 17.2h-2c-0.33-1.98-0.66-3.96-1-6-2.31-0.33-4.62-0.66-7-1v2h5v1h-5c-0.33 0.66-0.66 1.32-1 2-0.66-0.33-1.32-0.66-2-1-0.455-2.5-0.781-4.92-1.04-7.45-0.0836-0.762-0.167-1.52-0.253-2.31-0.177-1.63-0.349-3.25-0.516-4.88-0.252-2.43-0.516-4.87-0.783-7.3-3.66-33.8-3.3-64.3 6.44-96.9 5.02-17.4 7.04-35.1 8.15-53.2 0.0424-0.641 0.0847-1.28 0.128-1.94 0.745-11.3 1.06-22.6 1.06-34 0.00222-2.63 0.0206-5.26 0.0393-7.88 0.065-18.8-3.62-32.4-17.2-46.2-4.1-3.79-7.77-6.14-13-7.99-0.914-0.347-1.83-0.694-2.77-1.05-10.6-3.13-21.1-0.677-31.2 3.05-6.64 2.31-11.4 3.12-17.9 0.0625-8.75-5.6-12-17.5-14.9-26.9-4.54-12.8-17.2-20.1-27.8-27.5-3.57-2.51-7.06-5.12-10.6-7.74-0.977-0.734-0.977-0.734-1.97-1.48-5.63-4.25-11.2-8.61-16.7-13-14.9-11.7-27.6-18.2-47.1-16-2.83 0.465-2.83 0.465-4.76 1.57-2.62 1.27-5.16 1.89-7.99 2.55-3.37 0.804-6.64 1.64-9.94 2.69-7.09 1.77-11.4 1.22-17.7-2.21-4.92-6.2-2.57-18.5-2.35-25.9 0.135-9.59-1.15-18.7-7.41-26.3-3.2-3.04-6.81-4.92-10.8-6.72-0.928-0.433-1.86-0.866-2.81-1.31-6.01-1.3-12.7-2.25-18.1 1.12-0.701 0.722-1.4 1.44-2.12 2.19-0.908 0.413-1.82 0.825-2.75 1.25-4.02 2.16-6.99 4.99-10.3 8.11-1.95 1.64-1.95 1.64-3.95 1.64-0.268 0.557-0.536 1.11-0.812 1.69-0.818 1.59-1.7 3.16-2.62 4.69-0.516 0.866-1.03 1.73-1.56 2.62-0.773 1.27-0.773 1.27-1.56 2.56-3.74 8.95-3.7 18.8-3.64 28.3-0.0105 2.43-0.0223 4.85-0.0352 7.28-0.0103 3.77-0.0116 7.54 0.0083 11.3 0.0148 3.68-0.0077 7.35-0.0356 11 0.0154 1.12 0.0307 2.24 0.0466 3.39-0.0935 7.57-1.7 12.4-6.78 18.1-2.19 1.98-4.49 3.7-6.88 5.44-8.38 6.64-11.6 14.7-15.1 24.6-0.895 2.31-1.79 4.63-2.69 6.94-0.385 1.03-0.771 2.05-1.17 3.11-1.47 3.78-3.12 7.46-4.84 11.1-1.17 2.52-2.31 5.04-3.44 7.57-3.23 7.11-6.65 14.1-10.1 21.1-1.1 2.26-2.2 4.52-3.3 6.78-5.74 11.8-11.6 23.6-17.5 35.3-1.69 3.34-3.34 6.7-4.98 10.1-0.632 1.3-0.632 1.3-1.28 2.62-7.92 16-7.92 16-11.7 33.4 0.33 0.33 0.66 0.66 1 1 0.0218 1.73-0.0111 3.46-0.0625 5.19-0.1 13.1 1.62 26.1 3.12 39.1 4.25 37 4.25 37-0.0625 46.7-2.06 2.44-2.06 2.44-5 5-0.599 0.651-1.2 1.3-1.81 1.97-4.14 4.25-7.17 6.55-13.2 6.99-2.19 4.97e-4 -4.37-0.0495-6.56-0.145-1.15-0.0254-2.29-0.0508-3.47-0.0769-9.42-0.364-17.2-2.25-26-5.74-10-3.63-10-3.63-20.2-2.05-3.04 1.65-5.92 3.39-8.68 5.5-5.18 3.81-9.66 4.31-16 4.04-4.43-0.695-7.17-2.06-10.1-5.48-5.83-9.29-1.27-21.2 0.901-31.2 0.472-2.18 0.934-4.36 1.4-6.54 0.304-1.42 0.608-2.85 0.914-4.27 0.149-0.692 0.297-1.38 0.45-2.1 1.05-4.8 2.34-9.48 3.91-14.1 0.429-2.69 0.285-4.68-0.0419-7.37-0.0967-0.811-0.193-1.62-0.293-2.46-0.0772-0.618-0.154-1.24-0.234-1.87-0.56-0.00423-1.12-0.00846-1.7-0.0128-13.7-0.104-27.4-0.212-41-0.327-6.62-0.055-13.2-0.108-19.9-0.158-6.39-0.048-12.8-0.1-19.2-0.156-2.43-0.0203-4.86-0.039-7.29-0.0561-24.5-0.174-24.5-0.174-34.9-1.29 0.118-0.66 0.235-1.32 0.357-2 0.405-2.38 0.69-4.59 0.643-7-1.77-2.14-1.77-2.14-4-3 1-2 1-2 3.78-3.09 5.51-1.42 11.1-1.4 16.8-1.54 0.972-0.0275 0.972-0.0275 1.96-0.0556 15.7-0.434 31.3-0.425 47-0.442 2.03-0.00248 4.05-0.00644 6.08-0.0106 13.1-0.02 26.2 0.017 39.3 0.516 0.905 0.0304 1.81 0.0607 2.74 0.092 7.06 0.316 14.2 0.979 20.4 4.53 4.52 5.02 4.23 10.3 4.17 16.7-0.273 5.11-1.29 9.97-2.42 14.9-0.227 1.04-0.455 2.07-0.689 3.14-0.46 2.08-0.926 4.17-1.4 6.25-0.596 2.63-1.17 5.27-1.74 7.9-1.52 6.9-3.18 13.5-6.18 19.9-0.868 2.46-0.861 4.49-0.734 7.08 5.2-1.22 9.44-3.18 14.1-5.73 15.8-8.53 15.8-8.53 24.9-6.27 5.16 1.59 10.2 3.43 15.3 5.31 9.99 3.67 20.2 4.96 30.7 2.69 2.58-1.9 2.96-2.89 4-6 0.842-11.2-0.314-22.3-1.72-33.4-7.21-58.2-7.21-58.2 5.93-82.3 2.14-3.97 4.13-7.99 6.11-12 3.09-6.28 6.22-12.5 9.38-18.8 3.83-7.55 7.54-15.2 11.1-22.8 1.95-4.16 3.96-8.28 6.04-12.4 3.34-6.66 6.41-13.4 9.44-20.2 0.571-1.28 1.14-2.55 1.71-3.83 2.98-6.67 5.9-13.4 8.74-20.1 10.4-24.7 10.4-24.7 19.1-31.1 4.64-4.55 6.55-10 6.69-16.4-0.00191-0.746-0.00382-1.49-0.00578-2.26 0.0142-0.799 0.0283-1.6 0.0429-2.42 0.0415-2.53 0.057-5.07 0.0704-7.6 0.0389-3.33 0.0874-6.65 0.137-9.98 0.0109-0.806 0.0218-1.61 0.0331-2.44 0.331-21.3 3.41-40.7 18.8-56.8 3.79-3.41 7.9-5.78 12.4-8.15 0.788-0.463 1.58-0.926 2.39-1.4 13.5-7.91 30.2-8.39 43.8-0.312z" fill="#091208"/>
<path transform="translate(1152 778)" d="m0 0c1.16 0.00322 2.32 0.00645 3.52 0.00977 1.16-0.0161 2.32-0.0322 3.51-0.0488 1.11-6.45e-4 2.22-0.00129 3.36-0.00195 1.53-0.00447 1.53-0.00447 3.09-0.00903 2.6 0.372 2.6 0.372 4.24 1.5 1.98 2.72 1.76 4.83 1.8 8.18 0.0297 1.95 0.0297 1.95 0.06 3.94 0.00677 1.42 0.0132 2.84 0.0194 4.26 0.0168 1.45 0.035 2.91 0.0544 4.36 0.0475 3.82 0.0773 7.64 0.103 11.5 0.0298 3.9 0.0763 7.8 0.121 11.7 0.0861 7.65 0.153 15.3 0.209 23 5.31 0.177 5.31 0.177 9.62-2.56 12.7-10.3 24.3-14 40.4-12.4 3.44 0.827 6.05 2.08 9 4 0.743 0.436 1.48 0.871 2.25 1.32 17.3 10.7 26.3 28 31.4 47 2.14 15.6 0.372 30.6-6.64 44.6-0.442 0.944-0.884 1.89-1.34 2.86-1.81 3.43-3.9 6.41-6.22 9.52-0.785 1.06-1.57 2.12-2.38 3.21-0.679 0.797-1.36 1.59-2.06 2.41h-2c-0.223 0.576-0.446 1.15-0.676 1.75-4.1 6.98-13.7 11.6-21.3 13.8-15.1 3.26-28.4-0.572-41.1-8.55-5.24-3.1-8.87-4.51-15-4-0.227 0.908-0.454 1.82-0.688 2.75-1.52 3.77-2.93 5.08-6.31 7.25-3.16 1.03-6.13 1.16-9.44 1.19-0.927 0.0142-1.85 0.0284-2.81 0.043-2.93-0.245-5.09-1.01-7.75-2.23-0.0273-1.87-0.0465-3.75-0.0625-5.62-0.0116-1.04-0.0232-2.09-0.0352-3.16 0.0977-3.21 0.0977-3.21 0.595-5.99 0.529-3.39 0.636-6.58 0.648-10 0.00353-0.657 0.00705-1.31 0.0107-1.99 0.0106-2.19 0.0144-4.38 0.0181-6.56 0.00631-1.57 0.0131-3.15 0.0203-4.72 0.0146-3.38 0.0264-6.76 0.0359-10.1 0.0155-5.34 0.0394-10.7 0.0649-16 0.0711-15.2 0.131-30.4 0.182-45.6 0.0283-8.4 0.0636-16.8 0.107-25.2 0.0268-5.32 0.0447-10.6 0.056-15.9 0.0091-3.3 0.0264-6.6 0.0462-9.9 0.0075-1.53 0.0116-3.07 0.012-4.6 0.00108-2.09 0.0143-4.18 0.0306-6.26 0.00423-1.17 0.00846-2.34 0.0128-3.55 0.612-6.45 6.05-5.02 11.2-5.05z" fill="#34922E"/>
<path transform="translate(381,796)" d="m0 0c12 9.99 17.1 20.1 18.6 35.4 0.799 10.1 0.645 20.2 0.594 30.3-0.0183 3.76-0.0205 7.52-0.0203 11.3-0.0764 52.3-0.0764 52.3-13.2 66.7-10.7 10.1-25 14.2-39.4 14.7-11.6-0.338-22.3-2.21-31.6-9.38-1.48-1.14-1.48-1.14-3-2.31-15.4-12.6-21.4-31.8-23.3-51.1-1.05-13.1-0.583-25.5 1.08-38.5 0.227-1.84 0.413-3.68 0.592-5.52 1.59-13.8 7.37-27.5 15.7-38.6 0.762-1.05 0.762-1.05 1.54-2.12 7.4-9.33 18.1-15.7 29.5-18.9 0.961-0.286 0.961-0.286 1.94-0.578 13.7-2.81 29.5 0.957 41.1 8.58z" fill="#FDFDFD"/>
<path transform="translate(1082,834)" d="m0 0c0.793 0.278 1.59 0.557 2.4 0.844 15.6 6.17 25.1 20.3 31.6 35.2 0.361 0.794 0.722 1.59 1.09 2.41 2.56 7.32 2.09 15.2 2.09 22.9 0.00218 2.08 0.0204 4.17 0.0393 6.25 0.0772 17.6-4.89 30.5-17.2 43.5-15.5 14.6-29.2 16.6-49.9 16.3-11.6-0.364-20.9-3-30.1-10.3-0.883-0.66-1.77-1.32-2.68-2-9.91-7.67-17.5-16-21.3-28-0.37-0.917-0.74-1.83-1.12-2.78-4.79-12.9-5.03-29.4 0.121-42.2 0.278-0.736 0.557-1.47 0.844-2.23 5.87-14.3 14.5-27.1 28.2-34.8 0.94-0.536 1.88-1.07 2.85-1.62 15.5-8.33 36.5-9.41 53.2-3.38z" fill="#34922E"/>
<path transform="translate(551 791)" d="m0 0c0.805-0.0019 1.61-0.0038 2.44-0.00575 2.66-0.0037 5.32 0.00701 7.98 0.0182 1.89 0.0012 3.78 0.00164 5.67 0.00139 3.98 0.00157 7.96 0.00983 11.9 0.0233 4.97 0.0166 9.94 0.0207 14.9 0.0202 12.6 1.89e-4 25.2 0.0606 37.7 0.186 1.44 0.0143 1.44 0.0143 2.9 0.0288 5.61 0.0594 11.2 0.14 16.8 0.247 1.72 0.0315 3.44 0.0585 5.16 0.0805 21.8 0.294 21.8 0.294 30.1 8.64 3.06 3.9 4.27 8.06 4 13-1.96 7.31-7.9 12.7-13 18-0.545 0.592-1.09 1.18-1.65 1.79-1.35 1.21-1.35 1.21-3.35 1.21v2c-1.35 0.971-2.72 1.93-4.13 2.8-1.89 1.17-1.89 1.17-3.67 2.58-9.88 7.35-23.1 11.2-35.2 12.6-0.942 0.11-1.88 0.219-2.86 0.332-29.2 2.78-55.2-0.131-81.1-14.3-1.04-0.567-2.07-1.13-3.14-1.72-8.87-5.25-17.8-13.1-20.9-23.3-0.954-5.12-0.0402-9.57 2.47-14.1 6.47-8 17.1-10.2 26.9-10.1z" fill="#091108"/>
<path transform="translate(517,839)" d="m0 0c4.22 1.26 7.59 2.82 11.2 5.25 0.958 0.624 1.92 1.25 2.9 1.89 0.94 0.614 1.88 1.23 2.85 1.86 29.5 18.7 64.4 26.6 99 19 1.33-0.319 2.66-0.639 3.98-0.961 0.699-0.156 1.4-0.311 2.12-0.472 16.3-3.67 32.6-10.3 45.7-20.8 2.3-1.8 4.56-3.34 7.16-4.69 2.14 0.715 3.41 1.41 5 3 0.246 4.36 0.229 8.72 0.24 13.1 0.00956 2.18 0.0405 4.35 0.0723 6.53 0.0912 11.9-1.16 24.4-8.31 34.4-8.17 7.81-18.2 7.12-28.9 7.55-1.04 0.0419-2.08 0.0838-3.15 0.127-12.4 0.463-24.8 0.529-37.2 0.564-1.86 0.00611-1.86 0.00611-3.75 0.0124-6.51 0.0206-13 0.035-19.5 0.0445-6.03 0.0101-12.1 0.0375-18.1 0.0736-5.86 0.0338-11.7 0.0456-17.6 0.0497-2.47 0.00486-4.94 0.0164-7.42 0.035-3.44 0.0243-6.88 0.0234-10.3 0.0165-1.01 0.0128-2.02 0.0256-3.06 0.0388-7.73-0.0569-13-1.78-18.8-7.01-7.51-9.95-7.44-23.5-7.44-35.3-0.00219-2.21-0.0204-4.42-0.0393-6.63-0.00293-1.41-0.00492-2.83-0.00586-4.24-0.00411-1.28-0.00822-2.55-0.0125-3.87 0.248-3.48 0.672-6.84 3.24-9.41z" fill="#091108"/>
<path transform="translate(1354 837)" d="m0 0c2.49 1.97 4.12 4.02 5.88 6.66 0.495 5.25-0.249 8.52-3 13-2.38 2.86-2.84 2.98-6.81 3.5-5.7-0.149-10.6-2.38-15.9-4.38-5.59-1.9-9.29-1.74-15 0-4.09 2.31-5.79 3.91-8.31 7.88-0.391 3.84-0.218 6.35 1 10 7 4.91 14.6 8.34 22.6 11.4 11.5 4.48 21.8 11.3 27.4 22.6 3.73 8.79 4.7 19.1 1.5 28.2-4.69 10.3-16.2 18.7-26.5 22.8-19.9 6.29-38.4 2.89-57-6-1.52-1.52-1.21-2.88-1.25-5 0.0554-4.95 0.976-9.57 3.25-14 3.71-2.47 5.15-2.14 9.39-1.55 2.63 0.554 4.66 1.43 7.08 2.58 6.3 2.59 12.2 2.49 19 2.34 1.17-0.00129 2.34-0.00258 3.54-0.00391 6.38 0.148 6.38 0.148 12-2.37 1.67-6 0.999-10.9-1.69-16.5-3.83-4.92-9.77-7.05-15.3-9.58-29.7-13.7-29.7-13.7-36.4-28-2.05-10.7 0.67-21.5 6.59-30.6 15.5-19.9 46.2-26.8 68-13z" fill="#34922E"/>
<path transform="translate(953 834)" d="m0 0c1.29 6.45e-4 2.58 0.00129 3.91 0.00195 0.671 0.0083 1.34 0.0166 2.03 0.0251 2.05 0.0236 4.1 0.0206 6.16 0.0139 10.1 0.0554 10.1 0.0554 12.3 2.32 0.254 2.04 0.254 2.04 0.261 4.61 0.00708 0.972 0.0142 1.94 0.0215 2.95-0.00248 1.07-0.00495 2.14-0.00751 3.25 0.00511 1.13 0.0102 2.25 0.0155 3.41 0.014 3.74 0.0129 7.49 0.0106 11.2 0.00389 2.6 0.00822 5.21 0.013 7.81 0.00823 5.48 0.0073 11 0.00191 16.4-6e-3 6.29 0.00617 12.6 0.0276 18.9 0.0199 6.08 0.0228 12.2 0.0193 18.2 5.1e-4 2.57 0.00569 5.14 0.0158 7.71 0.0754 21.9-0.444 43.4-14.4 61.5-0.5 0.687-1 1.37-1.52 2.08-7.6 9.65-21.2 16.6-33.3 18.3-5.02 0.173-9.06-0.302-13.2-3.41-3.04-5.07-4.09-10.1-3-16 3.54-6.26 8.47-7.65 15-10 5.83-2.39 9.43-4.75 13-10 5.4-13.5 3.1-31.3 3.01-45.6-0.0223-3.72-0.0362-7.43-0.0477-11.1-0.0334-10.5-0.0755-21.1-0.138-31.6-0.0382-6.48-0.0606-13-0.0743-19.5-0.00806-2.46-0.0217-4.93-0.0409-7.39-0.0263-3.43-0.0344-6.85-0.0381-10.3-0.0124-1.02-0.0247-2.04-0.0374-3.09 0.00402-1.4 0.00402-1.4 0.00812-2.82-0.00406-0.808-0.00813-1.62-0.0123-2.45 0.979-5.57 5.05-5.46 9.93-5.45z" fill="#34922E"/>
<path transform="translate(1132,671)" d="m0 0h2c-0.0232 0.683-0.0464 1.37-0.0703 2.07-0.253 14.1 1.51 28.2 3.13 42.2 4.25 37 4.25 37-0.0625 46.7-2.06 2.44-2.06 2.44-5 5-0.898 0.976-0.898 0.976-1.81 1.97-4.14 4.25-7.17 6.55-13.2 6.99-2.19 4.97e-4 -4.37-0.0495-6.56-0.145-1.15-0.0254-2.29-0.0508-3.47-0.0769-9.42-0.364-17.2-2.25-26-5.74-10-3.63-10-3.63-20.2-2.05-3.04 1.65-5.92 3.39-8.68 5.5-5.18 3.81-9.66 4.31-16 4.04-4.43-0.695-7.17-2.06-10.1-5.48-5.83-9.29-1.27-21.2 0.901-31.2 0.472-2.18 0.934-4.36 1.4-6.54 0.304-1.42 0.608-2.85 0.914-4.27 0.223-1.04 0.223-1.04 0.45-2.1 1.05-4.8 2.34-9.48 3.91-14.1 0.429-2.69 0.285-4.68-0.0419-7.37-0.145-1.22-0.145-1.22-0.293-2.46-0.0772-0.618-0.154-1.24-0.234-1.87-0.56-0.00423-1.12-0.00846-1.7-0.0128-13.7-0.104-27.4-0.212-41-0.327-6.62-0.055-13.2-0.108-19.9-0.158-6.39-0.048-12.8-0.1-19.2-0.156-2.43-0.0203-4.86-0.039-7.29-0.0561-24.5-0.174-24.5-0.174-34.9-1.29 0.118-0.66 0.235-1.32 0.357-2 0.405-2.38 0.69-4.59 0.643-7-1.77-2.14-1.77-2.14-4-3 1-2 1-2 3.78-3.09 5.51-1.42 11.1-1.4 16.8-1.54 0.972-0.0275 0.972-0.0275 1.96-0.0556 15.7-0.434 31.3-0.425 47-0.442 2.03-0.00248 4.05-0.00644 6.08-0.0106 13.1-0.02 26.2 0.017 39.3 0.516 1.36 0.0455 1.36 0.0455 2.74 0.092 7.06 0.316 14.2 0.979 20.4 4.53 4.52 5.02 4.23 10.3 4.17 16.7-0.273 5.11-1.29 9.97-2.42 14.9-0.227 1.04-0.455 2.07-0.689 3.14-0.46 2.08-0.926 4.17-1.4 6.25-0.596 2.63-1.17 5.27-1.74 7.9-1.52 6.9-3.18 13.5-6.18 19.9-0.868 2.46-0.861 4.49-0.734 7.08 5.2-1.22 9.44-3.18 14.1-5.73 15.8-8.53 15.8-8.53 24.9-6.27 5.16 1.59 10.2 3.43 15.3 5.31 9.99 3.67 20.2 4.96 30.7 2.69 2.58-1.9 2.96-2.89 4-6 0.981-13.1-0.707-26-2.29-39-1.65-13.7-2.18-27.2-1.71-41h11c0.33-0.99 0.66-1.98 1-3z" fill="#33912D"/>
<path transform="translate(150 794)" d="m0 0c0.557 0.468 1.11 0.936 1.69 1.42 0.577 0.458 1.16 0.915 1.75 1.39 9.11 8.07 14.2 19.9 16.2 31.6 0.227 1.15 0.454 2.31 0.688 3.5 0.292 3.27 0.343 6.44 0.332 9.72-0.00282 1.08-0.00564 2.16-0.00854 3.28-0.00363 0.826-0.00725 1.65-0.011 2.5-13 0.0231-26 0.0409-39 0.0518-6.04 0.00523-12.1 0.0123-18.1 0.0236-5.82 0.0108-11.6 0.0168-17.5 0.0194-2.23 0.00185-4.45 0.00547-6.68 0.0109-3.11 0.00722-6.22 0.00826-9.32 0.0078-0.928 0.0036-1.86 0.00719-2.81 0.0109-0.844-0.00137-1.69-0.00275-2.56-0.00417-0.736 9.22e-4 -1.47 0.00184-2.23 0.00279-1.81-0.123-1.81-0.123-3.81-1.12 0.642-18.1 7.43-31.2 20-44 0.723-0.736 1.45-1.47 2.19-2.23 14.7-14 41.9-18.9 59.1-6.19z" fill="#FDFDFD"/>
<path transform="translate(1072 859)" d="m0 0c8.2 4.51 12.9 11.7 15.6 20.4 1.69 6.38 2.08 12.7 2.12 19.2 0.0101 0.867 0.0201 1.73 0.0305 2.63-0.187 13.8-6.76 23.1-16.2 32.6-4.51 3.71-8.77 4.3-14.4 4.15-9.66-1.05-18.3-4.98-24.8-12.3-7.31-12.8-9.07-28.2-6.31-42.6 3.6-11.7 10.6-20.9 21.3-26.9 8.45-3.74 14.8-0.766 22.7 2.64z" fill="#FDFDFD"/>
<path transform="translate(1217 860)" d="m0 0c4.61 3.25 7.4 7.8 10.2 12.6 0.445 0.712 0.889 1.42 1.35 2.16 6.19 11.5 4.43 29 0.977 41.2-2.41 5.61-7.02 9.92-11.2 14.3-2.16 2.12-2.16 2.12-3.14 4.32-8.31 2.77-18.5 1.69-26.5-1.67-7.66-4.08-13.8-9.12-16.6-17.6-3.36-13.2-3.54-31.5 3.52-43.7 9.64-13 26.1-18.7 41.3-11.7z" fill="#FDFDFD"/>
<path transform="translate(1205,490)" d="m0 0c1.27 0.248 1.27 0.248 2.56 0.5 3.48 0.6 3.48 0.6 7.19 0.438 3.25 0.0625 3.25 0.0625 5.25 2.06-0.133 4.78-2.67 7.83-6 11-0.824 0.601-1.65 1.2-2.5 1.82-12.1 8.85-16.2 21.8-21.1 35.5-1.52 4.09-3.23 8.03-5.09 12-1.16 2.48-2.29 4.97-3.41 7.47-3.23 7.11-6.65 14.1-10.1 21.2-1.1 2.26-2.2 4.52-3.3 6.78-5.74 11.8-11.6 23.6-17.5 35.2-1.69 3.34-3.34 6.7-4.98 10.1-0.416 0.854-0.832 1.71-1.26 2.59-5.64 11.7-10 22.7-12.7 35.4-0.495 0.99-0.495 0.99-1 2h-9c-0.495 0.99-0.495 0.99-1 2-2.87-5.74-1.99-13.5-0.304-19.5 6.18-17.7 15.7-34.5 24.1-51.3 3.44-6.81 6.75-13.7 9.99-20.6 1.95-4.16 3.96-8.28 6.04-12.4 3.34-6.66 6.41-13.4 9.44-20.2 0.571-1.28 1.14-2.55 1.71-3.83 2.98-6.67 5.9-13.4 8.74-20.1 10.3-24.5 10.3-24.5 19.2-31.4 2.29-2.02 3.57-4.11 5.02-6.78z" fill="#091108"/>
<path transform="translate(976 683)" d="m0 0c2.03-0.00248 4.05-0.00644 6.08-0.0106 13.1-0.02 26.2 0.017 39.3 0.516 1.36 0.0455 1.36 0.0455 2.74 0.092 7.06 0.316 14.2 0.979 20.4 4.53 3.92 4.35 4.14 8.29 4.12 14 0.00258 1.03 0.00516 2.06 0.00781 3.12-0.114 2.47-0.419 4.52-1.13 6.88h-2v-2h-2v2c-6.75 0.125-6.75 0.125-9-1-0.414-2.07-0.414-2.07-0.625-4.56-0.112-1.24-0.112-1.24-0.227-2.5-0.0735-0.957-0.0735-0.957-0.148-1.93-0.56-0.00423-1.12-0.00846-1.7-0.0128-13.7-0.104-27.4-0.212-41-0.327-6.62-0.055-13.2-0.108-19.9-0.158-6.39-0.048-12.8-0.1-19.2-0.156-2.43-0.0203-4.86-0.039-7.29-0.0561-24.5-0.174-24.5-0.174-34.9-1.29 0.118-0.66 0.235-1.32 0.357-2 0.405-2.38 0.69-4.59 0.643-7-1.77-2.14-1.77-2.14-4-3 1-2 1-2 3.78-3.09 5.51-1.42 11.1-1.4 16.8-1.54 0.972-0.0275 0.972-0.0275 1.96-0.0556 15.7-0.434 31.3-0.425 47-0.442z" fill="#34912E"/>
<path transform="translate(1527,699)" d="m0 0v6c2.97 0.99 5.94 1.98 9 3 1.12 4.75 1.12 4.75 0 7-5.41 27.1-4.27 56.4-1.44 83.8 0.567 5.73 0.527 11.4 0.438 17.2h-2c-0.495-2.97-0.495-2.97-1-6-2.31-0.33-4.62-0.66-7-1v2h5v1h-5c-0.495 0.99-0.495 0.99-1 2-0.66-0.33-1.32-0.66-2-1-0.455-2.5-0.781-4.92-1.04-7.45-0.0836-0.762-0.167-1.52-0.253-2.31-0.177-1.63-0.349-3.25-0.516-4.88-0.252-2.43-0.516-4.87-0.783-7.3-2.71-25.1-5.28-51.3 0.588-76.1 0.166-0.72 0.332-1.44 0.502-2.18 1.01-4.32 2.03-8.63 3.5-12.8 2-1 2-1 3-1z" fill="#33902D"/>
<path transform="translate(632 759)" d="m0 0c3.79 2.82 6.11 6.12 8.71 10 0.0791 2.33 0.088 4.67 0 7-13.5-0.558-13.5-0.558-18.3-2.56-12.8-4.74-26.4-0.728-38.7 3.56-2.25 0.773-4.5 1.54-6.75 2.31-1.35 0.489-1.35 0.489-2.73 0.988-2.62 0.729-4.81 0.831-7.52 0.699-1-3-1-3 0.371-5.89 7.39-12 14.1-18.3 28-21.7 12.2-1.94 26.2-0.904 36.9 5.56z" fill="#091108"/>
<path transform="translate(1043,710)" d="m0 0h2v2h2c-6.93 35.7-6.93 35.7-11.3 44.9-0.868 2.46-0.861 4.49-0.734 7.08 3.74-0.974 6.85-1.92 10.3-3.69 0.887-0.433 1.77-0.866 2.69-1.31 0.66 0.33 1.32 0.66 2 1h3c3 3.33 3 3.33 3 6 1.32 0.66 2.64 1.32 4 2-7.73 5.84-14 10.4-24.1 9.62-4.25-0.924-7.04-2.29-9.86-5.62-5.83-9.3-1.27-21.3 0.901-31.3 0.472-2.19 0.935-4.38 1.4-6.57 1.59-7.47 3.31-14.9 5.7-22.1 3.41-0.763 5.65-1.12 9 0v-2z" fill="#091308"/>
<path transform="translate(969 786)" d="m0 0c3.17 2.58 5.73 5.61 7.57 9.28 0.175 2.27 0.267 4.54 0.312 6.81 0.0561 1.83 0.0561 1.83 0.113 3.71-0.499 4.08-1.55 5.61-4.43 8.48-5.94 3.59-12.2 4.11-19 3-3.42-1.57-6.13-3.58-9-6-0.846-0.557-1.69-1.11-2.56-1.69-2.57-4.14-2.19-8.61-1.44-13.3 2.08-5.13 5.33-9 10-12 6.42-1.97 12.7-2 18.4 1.72z" fill="#34922E"/>
<path transform="translate(1089 757)" d="m0 0c8.48 3.11 16.2 3.95 25.2 3.57 2.53 0.125 2.53 0.125 5.53 2.12-1.32 0.33-2.64 0.66-4 1 0.708 2.96 0.708 2.96 2 6 2 1.21 2 1.21 4 2 0.495 1.49 0.495 1.49 1 3-15 0.559-27.9 0.623-42-5-7.13-2.45-13.6-4.48-21-2-3.85-1.24-5.66-3.82-8-7-1.32 0.33-2.64 0.66-4 1 1.91-5.16 5.92-6.58 10.7-8.78 10.9-4.03 20.3 0.246 30.6 4.09z" fill="#34922E"/>
<path transform="translate(1210,432)" d="m0 0c5.94 1.49 5.94 1.49 12 3 0.0226 7.53 0.0409 15.1 0.0518 22.6 0.00522 3.5 0.0123 6.99 0.0236 10.5 0.0129 4.02 0.0178 8.03 0.0222 12 0.00516 1.26 0.0103 2.52 0.0156 3.81 1.13e-4 1.74 1.13e-4 1.74 2.29e-4 3.52 0.00222 1.03 0.00444 2.05 0.00673 3.11-0.12 2.44-0.12 2.44-1.12 4.44h-2c-0.495-1.49-0.495-1.49-1-3h-11c-0.922-4.61-1.06-8.66-0.914-13.3 0.0212-0.803 0.0425-1.61 0.0644-2.43 0.0462-1.7 0.0951-3.4 0.147-5.1 0.0769-2.55 0.145-5.11 0.211-7.66 0.744-27.4 0.744-27.4 3.49-31.5z" fill="#34912E"/>
<path transform="translate(1123,757)" d="m0 0c3.38 0.688 3.38 0.688 7 2 1.6 2.53 2.13 3.99 1.75 6.96-0.928 2.54-2.11 3.58-4.18 5.29-0.617 0.521-1.23 1.04-1.87 1.58-1.69 1.17-1.69 1.17-3.69 1.17v-2c-1.21-0.309-1.21-0.309-2.44-0.625-0.846-0.454-1.69-0.908-2.56-1.38-0.812-3.12-0.812-3.12-1-6 0.99-0.33 1.98-0.66 3-1-0.66-0.66-1.32-1.32-2-2 0.804-0.474 1.61-0.949 2.44-1.44 2.41-1.33 2.41-1.33 3.56-2.56z" fill="#0F1E0E"/>
<path transform="translate(804,966)" d="m0 0h1c-0.33 2.97-0.66 5.94-1 9-2.48-0.99-2.48-0.99-5-2 0.66-1.32 1.32-2.64 2-4h2c0.33-0.99 0.66-1.98 1-3z" fill="#489D43"/>
</svg>
